<svg width="194" height="100" viewBox="0 0 194 100" fill="none" xmlns="http://www.w3.org/2000/svg">
    <mask id="mask0" mask-type="alpha" maskUnits="userSpaceOnUse" x="0" y="0" width="150" height="100">
        <rect width="150" height="99.8054" fill="#C4C4C4" />
    </mask>
    <g mask="url(#mask0)">
        <path d="M90.6726 19.3369C90.6726 19.3369 86.5427 6.23144 96.8261 7.68378C107.103 9.13612 118.432 14.7734 106.752 26.0549C106.752 26.0549 102.649 20.8306 90.6726 19.3369Z" fill="white" stroke="#2A2D34" stroke-width="1.9485" stroke-miterlimit="10" stroke-linecap="round" stroke-linejoin="round" />
        <path d="M94.9952 20.101C94.9952 20.101 92.2144 8.46847 98.2165 7.90405" stroke="#2A2D34" stroke-width="1.9485" stroke-miterlimit="10" stroke-linecap="round" stroke-linejoin="round" />
        <path d="M98.5881 21.1403C98.5881 21.1403 98.9667 11.972 102.745 9.01227" stroke="#2A2D34" stroke-width="1.9485" stroke-miterlimit="10" stroke-linecap="round" stroke-linejoin="round" />
        <path d="M102.291 22.751C102.291 22.751 111.102 15.9849 107.103 10.8914" stroke="#2A2D34" stroke-width="1.9485" stroke-miterlimit="10" stroke-linecap="round" stroke-linejoin="round" />
        <path d="M70.2916 32.5113C70.2916 32.5113 68.206 28.643 71.1519 25.697C74.0979 22.751 96.1928 19.4402 109.45 29.7443C113.173 32.6421 109.45 36.2488 109.45 36.2488L70.2916 32.5113Z" fill="#2A2D34" stroke="#2A2D34" stroke-width="1.9485" stroke-miterlimit="10" stroke-linecap="round" stroke-linejoin="round" />
        <path d="M62.314 68.4137C62.314 68.4137 51.1565 49.8086 44.6381 50.7378C36.9015 51.8391 30.0597 67.1265 65.1499 87.652H111.556L107.605 75.4069L62.314 68.4137Z" fill="#FFD535" stroke="#2A2D34" stroke-width="1.9485" stroke-miterlimit="10" stroke-linecap="round" stroke-linejoin="round" />
        <path d="M59.5677 92.5597L50.1378 90.0818L40.9006 87.652C41.2104 67.9869 54.5568 54.6543 54.5568 54.6543L61.9217 59.1559L82.0824 71.4698L89.8466 126.087H35.9241C54.5637 126.087 59.5677 92.5597 59.5677 92.5597Z" fill="white" />
        <path d="M48.8437 89.7445L40.9074 87.6589C41.2172 67.9938 54.5635 54.6612 54.5635 54.6612L61.9285 59.1628C61.9285 59.1628 49.4769 75.0146 48.8437 89.7445Z" fill="#BC1E1E" />
        <path d="M59.5677 92.5597L50.1378 90.0818L40.9006 87.652C41.2104 67.9869 54.5568 54.6543 54.5568 54.6543L61.9217 59.1559L82.0824 71.4698L89.8466 126.087H35.9241C54.5637 126.087 59.5677 92.5597 59.5677 92.5597Z" stroke="#2A2D34" stroke-width="1.9485" stroke-miterlimit="10" stroke-linecap="round" stroke-linejoin="round" />
        <path d="M110.524 84.6992C110.524 84.6992 114.894 91.6305 114.612 98.61C113.999 113.794 102.463 121.813 83.6793 120.34C72.6181 119.473 63.6907 111.199 62.4448 98.9679C61.7359 92.016 65.4665 84.6786 65.4665 84.6786L67.3112 79.9017" fill="#FFD535" />
        <path d="M110.524 84.6992C110.524 84.6992 114.894 91.6305 114.612 98.61C113.999 113.794 102.463 121.813 83.6793 120.34C72.6181 119.473 63.6907 111.199 62.4448 98.9679C61.7359 92.016 65.4665 84.6786 65.4665 84.6786L67.3112 79.9017" stroke="#2A2D34" stroke-width="1.9485" stroke-miterlimit="10" stroke-linecap="round" stroke-linejoin="round" />
        <path d="M82.0892 111.977C90.2585 111.977 96.8811 103.552 96.8811 93.1586C96.8811 82.7654 90.2585 74.3401 82.0892 74.3401C73.9199 74.3401 67.2974 82.7654 67.2974 93.1586C67.2974 103.552 73.9199 111.977 82.0892 111.977Z" fill="white" />
        <path d="M88.8314 84.3581C75.9943 84.365 68.7326 81.5153 66 80.1594V77C68.5055 78.2045 76.7859 81.5773 88.8314 81.5704C100.877 81.5773 109.15 78.1977 111.663 77V80.1594C108.93 81.5085 101.668 84.365 88.8314 84.3581Z" fill="#44B974" stroke="#2A2D34" stroke-width="1.9485" stroke-miterlimit="10" stroke-linecap="round" stroke-linejoin="round" />
        <path d="M82.7329 87.2214L81.1911 88.7633C80.5303 89.424 79.4565 89.424 78.7958 88.7633L77.2539 87.2214C76.5932 86.5606 76.5932 85.4869 77.2539 84.8261L78.7958 83.2843C79.4565 82.6235 80.5303 82.6235 81.1911 83.2843L82.7329 84.8261C83.3937 85.4869 83.3937 86.5606 82.7329 87.2214Z" fill="#FFD634" stroke="#2A2D34" stroke-width="1.9485" stroke-miterlimit="10" stroke-linecap="round" stroke-linejoin="round" />
        <path d="M117.964 48.37C112.726 32.6833 97.1564 30.233 88.6213 29.7855C88.5938 29.7855 88.5663 29.7855 88.5387 29.7787C88.5112 29.7787 88.4837 29.7787 88.4561 29.7718C79.9211 29.3588 64.1793 30.233 57.3926 45.3139C48.6854 64.6624 63.491 75.3588 63.491 75.3588C66.1754 76.6872 69.5482 78.0914 73.561 79.1789C78.3311 80.4729 82.5917 80.941 85.9644 81.0649C89.3303 81.2783 93.6185 81.237 98.4917 80.4316C102.587 79.7502 106.091 78.6971 108.892 77.644C108.878 77.6509 124.682 68.4963 117.964 48.37Z" fill="white" />
        <path d="M88.0845 38.6579C95.7867 39.0433 91.9872 46.6974 92.5998 50.8135C93.2193 54.9296 95.4632 53.374 105.939 52.197C115.927 51.075 118.198 64.6279 118.398 65.7223C119.974 61.2621 120.421 55.5078 118.04 48.37C112.767 32.5869 97.0257 30.1985 88.5319 29.7786C80.0312 29.345 64.1312 30.1365 57.3031 45.3139C54.2126 52.1763 54.0887 57.9513 55.2038 62.5423C55.5135 61.4755 59.1341 48.2117 68.9563 50.3317C79.2672 52.5549 81.339 54.3308 82.3715 50.2972C83.3971 46.2637 80.3823 38.2724 88.0845 38.6579Z" fill="#FFD535" />
        <path d="M108.961 77.6508C106.4 78.7246 97.9755 81.6843 85.9506 81.0717C73.9258 80.4591 65.845 76.6872 63.4015 75.3587C63.4015 75.3587 48.5959 64.6692 57.303 45.3139C64.1311 30.1365 80.0311 29.345 88.5318 29.7786C97.0325 30.1985 112.774 32.5869 118.04 48.37C124.765 68.5031 108.961 77.6508 108.961 77.6508Z" stroke="#2A2D34" stroke-width="1.9485" stroke-miterlimit="10" stroke-linecap="round" stroke-linejoin="round" />
        <path d="M68.6121 36.531C68.6121 36.531 70.1195 44.2057 67.3732 45.9746C64.9021 47.5646 59.2786 43.7652 58.3907 41.7828C57.9364 40.7641 57.3788 37.1023 60.9168 34.0737C64.4547 31.0451 69.0389 33.3647 69.0389 33.3647" fill="#FFD535" />
        <path d="M68.6121 36.531C68.6121 36.531 70.1195 44.2057 67.3732 45.9746C64.9021 47.5646 59.2786 43.7652 58.3907 41.7828C57.9364 40.7641 57.3788 37.1023 60.9168 34.0737C64.4547 31.0451 69.0389 33.3647 69.0389 33.3647" stroke="#2A2D34" stroke-width="1.9485" stroke-miterlimit="10" stroke-linecap="round" stroke-linejoin="round" />
        <path d="M107.571 35.3058C107.571 35.3058 112.361 33.4542 115.583 36.8201C118.797 40.1859 117.875 43.772 117.324 44.7494C116.243 46.6354 110.269 49.8498 107.97 48.0189C105.416 45.9884 107.688 38.4996 107.688 38.4996" fill="#FFD535" />
        <path d="M107.571 35.3058C107.571 35.3058 112.361 33.4542 115.583 36.8201C118.797 40.1859 117.875 43.772 117.324 44.7494C116.243 46.6354 110.269 49.8498 107.97 48.0189C105.416 45.9884 107.688 38.4996 107.688 38.4996" stroke="#2A2D34" stroke-width="1.9485" stroke-miterlimit="10" stroke-linecap="round" stroke-linejoin="round" />
        <path d="M96.0139 82.7513C96.0139 82.7513 98.9048 103.958 102.911 124.635C106.208 141.637 138.579 130.858 139.612 129.612C140.651 128.366 129.865 124.181 125.508 120.987C121.151 117.793 114.832 88.6846 112.313 81.1544C109.801 73.6243 96.0139 82.7513 96.0139 82.7513Z" fill="white" stroke="#2A2D34" stroke-width="1.9485" stroke-miterlimit="10" stroke-linecap="round" stroke-linejoin="round" />
        <path d="M75.5434 23.8592C75.5434 23.8592 78.1865 19.5022 87.9812 19.2957C97.769 19.0892 105.581 22.7854 109.45 29.7512C109.45 29.7512 93.1367 23.0332 75.5434 23.8592Z" fill="white" stroke="#2A2D34" stroke-width="1.9485" stroke-miterlimit="10" stroke-linecap="round" stroke-linejoin="round" />
        <path d="M84.1198 24.0037C84.1198 24.0037 88.2841 19.3851 94.6579 20.0252C100.749 20.6378 98.8497 26.4334 98.8497 26.4334" stroke="#2A2D34" stroke-width="1.9485" stroke-miterlimit="10" stroke-linecap="round" stroke-linejoin="round" />
        <path d="M110.73 92.546C112.265 92.6286 113.71 92.3119 114.936 91.4653C122.115 86.5026 115.163 77.5132 109.154 74.3401C103.145 71.167 97.4111 70.4098 94.8162 76.3224C93.5221 79.2753 95.4356 83.1574 99.5862 86.5921" fill="#FFD535" />
        <path d="M110.73 92.546C112.265 92.6286 113.71 92.3119 114.936 91.4653C122.115 86.5026 115.163 77.5132 109.154 74.3401C103.145 71.167 97.4111 70.4098 94.8162 76.3224C93.5221 79.2753 95.4356 83.1574 99.5862 86.5921" stroke="#2A2D34" stroke-width="1.9485" stroke-miterlimit="10" stroke-linecap="round" stroke-linejoin="round" />
        <path d="M76.4933 55.556C76.4933 55.556 78.7992 57.3181 81.284 56.3545C83.7688 55.3839 84.7669 54.5511 87.2792 54.675C89.7916 54.8058 90.7001 55.735 93.0748 56.9464C95.4495 58.1578 97.9205 56.6367 97.9205 56.6367" stroke="#2A2D34" stroke-width="1.9485" stroke-miterlimit="10" stroke-linecap="round" stroke-linejoin="round" />
        <path d="M90.3903 51.5156C90.4041 51.5018 90.4178 51.4881 90.4247 51.4743C91.2714 50.6001 90.8997 49.1547 89.7364 48.7968C88.9999 48.5627 88.1877 48.4664 87.5958 48.4388C87.0038 48.4113 86.1916 48.4251 85.4345 48.5765C84.2368 48.8174 83.7206 50.2147 84.4777 51.1714C84.4915 51.1852 84.4983 51.199 84.5121 51.2127C85.9782 53.0505 88.7384 53.1882 90.3903 51.5156Z" fill="#44B974" stroke="#2A2D34" stroke-width="1.9485" stroke-miterlimit="10" />
        <path d="M76.1009 47.8606C75.7568 47.84 75.4952 48.1566 75.5572 48.4939C75.7912 49.7535 76.865 50.7378 78.2003 50.8066C79.5356 50.8755 80.7057 50.0013 81.0637 48.7692C81.16 48.4388 80.926 48.1015 80.5887 48.0878L76.1009 47.8606Z" fill="#2A2D34" />
        <path d="M99.0906 49.017C99.4348 49.0377 99.6619 49.3681 99.5655 49.6984C99.2076 50.9305 98.0375 51.8047 96.7022 51.7359C95.3668 51.667 94.2862 50.6827 94.059 49.4231C93.9971 49.0858 94.2587 48.7761 94.6028 48.7899L99.0906 49.017Z" fill="#2A2D34" />
        <path d="M121.777 98.9266C118.955 104.702 110.489 104.123 104.446 102.843C100.722 102.058 97.9204 100.998 97.9204 100.998C101.238 83.0197 110.806 75.7924 110.806 75.7924C112.251 76.1297 113.8 76.9694 115.293 78.174C120.683 82.5241 125.35 91.6167 121.777 98.9266Z" fill="white" stroke="#2A2D34" stroke-width="1.9485" stroke-miterlimit="10" stroke-linecap="round" stroke-linejoin="round" />
        <path d="M115.293 78.1809C115.293 78.1809 104.542 89.9579 104.446 102.843C100.722 102.058 97.9204 100.998 97.9204 100.998C101.238 83.0197 110.806 75.7924 110.806 75.7924C112.251 76.1297 113.807 76.9763 115.293 78.1809Z" fill="#BC1E1E" stroke="#2A2D34" stroke-width="1.9485" stroke-miterlimit="10" stroke-linecap="round" stroke-linejoin="round" />
        <path d="M49 89C49 89 49.5685 80.6736 54 72" stroke="#2A2D34" stroke-width="1.9485" stroke-miterlimit="10" stroke-linecap="round" stroke-linejoin="round" />
        <path d="M59.5677 92.5597L62.3485 81.1819" stroke="#2A2D34" stroke-width="1.9485" stroke-miterlimit="10" stroke-linecap="round" stroke-linejoin="round" />
        <path d="M60.841 27.7344L58.0602 32.057L50.1446 44.3365C48.6509 43.366 46.9646 42.7327 45.2094 42.4712C38.3951 41.4387 31.9318 46.2018 30.9062 53.023C30.7273 54.2 30.7204 55.3908 30.8787 56.5678L16.4103 58.4951L11.2962 59.1834C10.8969 56.1548 10.9176 53.0918 11.3719 50.0701C14.0219 32.5388 30.6171 20.2937 48.1553 22.9368C52.6707 23.6251 57.0002 25.2564 60.841 27.7344Z" fill="white" stroke="#2A2D34" stroke-width="2.2214" stroke-miterlimit="10" stroke-linecap="round" stroke-linejoin="round" />
        <path d="M50.1446 44.3296L43.3303 54.8952L30.8718 56.5609C30.7135 55.3839 30.7272 54.1862 30.8993 53.0161C31.9249 46.1949 38.3882 41.4318 45.2025 42.4643C46.9645 42.7258 48.644 43.3591 50.1446 44.3296Z" stroke="#2A2D34" stroke-width="2.2214" stroke-miterlimit="10" stroke-linecap="round" stroke-linejoin="round" />
        <path d="M32.0283 49.4094L43.3304 54.8883L42.7453 42.3335" stroke="#2A2D34" stroke-width="2.2214" stroke-miterlimit="10" stroke-linecap="round" stroke-linejoin="round" />
        <path d="M36.4197 44.4191L43.3304 54.8883" stroke="#2A2D34" stroke-width="2.2214" stroke-miterlimit="10" stroke-linecap="round" stroke-linejoin="round" />
        <path d="M60.841 27.7344L58.0602 32.057C58.0602 32.057 42.6695 24.4098 29.5709 32.5182C14.779 41.6796 16.4103 58.4951 16.4103 58.4951L11.2962 59.1834C10.8969 56.1548 10.9176 53.0918 11.3719 50.0701C14.0219 32.5388 30.6171 20.2937 48.1553 22.9368C52.6707 23.6251 57.0002 25.2564 60.841 27.7344Z" fill="#BC1E1E" stroke="#2A2D34" stroke-width="1.9485" stroke-miterlimit="10" stroke-linecap="round" stroke-linejoin="round" />
        <path d="M41.348 22.6409L41.7265 28.8219" stroke="#2A2D34" stroke-width="1.605" stroke-miterlimit="10" stroke-linecap="round" stroke-linejoin="round" />
        <path d="M48.1554 22.9368L47.2331 29.0284" stroke="#2A2D34" stroke-width="1.605" stroke-miterlimit="10" stroke-linecap="round" stroke-linejoin="round" />
        <path d="M54.3296 24.5062L52.3335 30.0127" stroke="#2A2D34" stroke-width="1.605" stroke-miterlimit="10" stroke-linecap="round" stroke-linejoin="round" />
        <path d="M27.1136 53.4842C27.1136 53.4842 27.7331 45.8439 34.5818 41.6796C41.4306 37.5153 47.8525 39.8487 47.8525 39.8487" stroke="#2A2D34" stroke-width="2.2214" stroke-miterlimit="10" stroke-linecap="round" stroke-linejoin="round" />
        <path d="M11.014 54.8884H16.4379" stroke="#2A2D34" stroke-width="1.605" stroke-miterlimit="10" stroke-linecap="round" stroke-linejoin="round" />
        <path d="M11.8193 47.7161L17.4291 48.9895" stroke="#2A2D34" stroke-width="1.605" stroke-miterlimit="10" stroke-linecap="round" stroke-linejoin="round" />
        <path d="M13.726 41.9619L19.1086 44.3159" stroke="#2A2D34" stroke-width="1.605" stroke-miterlimit="10" stroke-linecap="round" stroke-linejoin="round" />
        <path d="M17.1125 36.063L21.9238 39.5183" stroke="#2A2D34" stroke-width="1.605" stroke-miterlimit="10" stroke-linecap="round" stroke-linejoin="round" />
        <path d="M22.2197 30.5014L26.1293 35.0167" stroke="#2A2D34" stroke-width="1.605" stroke-miterlimit="10" stroke-linecap="round" stroke-linejoin="round" />
        <path d="M28.1392 26.4335L30.9613 31.7197" stroke="#2A2D34" stroke-width="1.605" stroke-miterlimit="10" stroke-linecap="round" stroke-linejoin="round" />
        <path d="M35.043 23.6871L36.6055 29.5722" stroke="#2A2D34" stroke-width="1.605" stroke-miterlimit="10" stroke-linecap="round" stroke-linejoin="round" />
    </g>
    <path d="M151.208 44.9163C149.237 42.2315 145.439 41.6218 142.712 43.5525C142.223 43.8983 141.831 44.3184 141.483 44.7575C141.295 44.2206 141.055 43.7107 140.702 43.2299C138.731 40.5451 134.933 39.9354 132.206 41.8661C129.478 43.7969 128.867 47.5283 130.838 50.2131L138.846 60.8429L149.84 53.2632C152.567 51.3325 153.18 47.5896 151.208 44.9163Z" fill="#FFD530" stroke="#2A2D34" stroke-width="2" stroke-miterlimit="10" stroke-linecap="round" stroke-linejoin="round" />
    <path d="M159.391 85.2603L182.565 93.266L192.112 62.0529L168.938 54.0472L159.391 85.2603Z" fill="white" stroke="#2A2D34" stroke-width="2" stroke-miterlimit="10" stroke-linecap="round" stroke-linejoin="round" />
    <path d="M192.114 61.5333L184.842 65.2183" stroke="#2A2D34" stroke-width="2" stroke-miterlimit="10" stroke-linecap="round" stroke-linejoin="round" />
    <path d="M170.277 54.5L173.6 61.5715" stroke="#2A2D34" stroke-width="2" stroke-miterlimit="10" stroke-linecap="round" stroke-linejoin="round" />
    <path d="M181.777 93.2637L177.834 85.7236" stroke="#2A2D34" stroke-width="2" stroke-miterlimit="10" stroke-linecap="round" stroke-linejoin="round" />
    <path d="M159.381 85.7237L166.654 82.1146" stroke="#2A2D34" stroke-width="2" stroke-miterlimit="10" stroke-linecap="round" stroke-linejoin="round" />
    <path d="M165.609 82.293L179.164 86.9598L185.898 65.0099L172.343 60.3432L165.609 82.293Z" fill="#2DC275" stroke="#2A2D34" stroke-width="2" stroke-miterlimit="10" stroke-linecap="round" stroke-linejoin="round" />
</svg>